<svg width="56" height="58" viewBox="0 0 56 58" fill="none" xmlns="http://www.w3.org/2000/svg">
<rect x="3.62134" width="5" height="5" rx="1" transform="rotate(45 3.62134 0)" fill="#CBCBCB"/>
<rect x="3.53552" y="10" width="5" height="5" rx="1" transform="rotate(45 3.53552 10)" fill="#CBCBCB"/>
<rect x="3.53552" y="20" width="5" height="5" rx="1" transform="rotate(45 3.53552 20)" fill="#CBCBCB"/>
<rect x="3.53552" y="30" width="5" height="5" rx="1" transform="rotate(45 3.53552 30)" fill="#CBCBCB"/>
<rect x="3.53552" y="40" width="5" height="5" rx="1" transform="rotate(45 3.53552 40)" fill="#CBCBCB"/>
<rect x="3.53552" y="50" width="5" height="5" rx="1" transform="rotate(45 3.53552 50)" fill="#CBCBCB"/>
<rect x="16" width="5" height="5" rx="1" transform="rotate(45 16 0)" fill="#CBCBCB"/>
<rect x="15.9142" y="10" width="5" height="5" rx="1" transform="rotate(45 15.9142 10)" fill="#CBCBCB"/>
<rect x="15.9142" y="20" width="5" height="5" rx="1" transform="rotate(45 15.9142 20)" fill="#CBCBCB"/>
<rect x="15.9142" y="30" width="5" height="5" rx="1" transform="rotate(45 15.9142 30)" fill="#CBCBCB"/>
<rect x="15.9142" y="40" width="5" height="5" rx="1" transform="rotate(45 15.9142 40)" fill="#CBCBCB"/>
<rect x="15.9142" y="50" width="5" height="5" rx="1" transform="rotate(45 15.9142 50)" fill="#CBCBCB"/>
<rect x="28" width="5" height="5" rx="1" transform="rotate(45 28 0)" fill="#CBCBCB"/>
<rect x="27.9142" y="10" width="5" height="5" rx="1" transform="rotate(45 27.9142 10)" fill="#CBCBCB"/>
<rect x="27.9142" y="20" width="5" height="5" rx="1" transform="rotate(45 27.9142 20)" fill="#CBCBCB"/>
<rect x="27.9142" y="30" width="5" height="5" rx="1" transform="rotate(45 27.9142 30)" fill="#CBCBCB"/>
<rect x="27.9142" y="40" width="5" height="5" rx="1" transform="rotate(45 27.9142 40)" fill="#CBCBCB"/>
<rect x="27.9142" y="50" width="5" height="5" rx="1" transform="rotate(45 27.9142 50)" fill="#CBCBCB"/>
<rect x="40" width="5" height="5" rx="1" transform="rotate(45 40 0)" fill="#CBCBCB"/>
<rect x="39.9142" y="10" width="5" height="5" rx="1" transform="rotate(45 39.9142 10)" fill="#CBCBCB"/>
<rect x="39.9142" y="20" width="5" height="5" rx="1" transform="rotate(45 39.9142 20)" fill="#CBCBCB"/>
<rect x="39.9142" y="30" width="5" height="5" rx="1" transform="rotate(45 39.9142 30)" fill="#CBCBCB"/>
<rect x="39.9142" y="40" width="5" height="5" rx="1" transform="rotate(45 39.9142 40)" fill="#CBCBCB"/>
<rect x="39.9142" y="50" width="5" height="5" rx="1" transform="rotate(45 39.9142 50)" fill="#CBCBCB"/>
<rect x="52" width="5" height="5" rx="1" transform="rotate(45 52 0)" fill="#CBCBCB"/>
<rect x="51.9142" y="10" width="5" height="5" rx="1" transform="rotate(45 51.9142 10)" fill="#CBCBCB"/>
<rect x="51.9142" y="20" width="5" height="5" rx="1" transform="rotate(45 51.9142 20)" fill="#CBCBCB"/>
<rect x="51.9142" y="30" width="5" height="5" rx="1" transform="rotate(45 51.9142 30)" fill="#CBCBCB"/>
<rect x="51.9142" y="40" width="5" height="5" rx="1" transform="rotate(45 51.9142 40)" fill="#CBCBCB"/>
<rect x="51.9142" y="50" width="5" height="5" rx="1" transform="rotate(45 51.9142 50)" fill="#CBCBCB"/>
</svg>
